<svg width="102" height="103" viewBox="0 0 102 103" fill="none" xmlns="http://www.w3.org/2000/svg">
<path fill-rule="evenodd" clip-rule="evenodd" d="M69.9337 32.6672C70.8259 31.7828 72.0303 31.285 73.2865 31.2816C74.5428 31.2781 75.7499 31.7692 76.6469 32.6486C77.544 33.5281 78.0589 34.7253 78.0803 35.9813C78.1017 37.2374 77.6279 38.4514 76.7613 39.3609L51.3123 71.1722C50.875 71.6433 50.3471 72.0213 49.7602 72.2837C49.1734 72.5462 48.5397 72.6876 47.8969 72.6995C47.2542 72.7114 46.6157 72.5935 46.0195 72.353C45.4234 72.1125 44.8819 71.7542 44.4273 71.2997L27.5655 54.4314C27.0957 53.9937 26.7189 53.4658 26.4576 52.8793C26.1963 52.2928 26.0558 51.6597 26.0444 51.0177C26.0331 50.3758 26.1512 49.7381 26.3917 49.1427C26.6322 48.5474 26.9901 48.0066 27.4441 47.5525C27.8981 47.0985 28.4389 46.7406 29.0343 46.5001C29.6296 46.2597 30.2673 46.1416 30.9093 46.1529C31.5513 46.1642 32.1844 46.3047 32.7709 46.5661C33.3574 46.8274 33.8852 47.2042 34.323 47.6739L47.6722 61.0168L69.8126 32.8074C69.8521 32.758 69.8947 32.7112 69.9401 32.6672H69.9337Z" fill="white"/>
</svg>
