<svg width="78" height="79" viewBox="0 0 78 79" fill="none" xmlns="http://www.w3.org/2000/svg">
<g clip-path="url(#clip0)">
<path fill-rule="evenodd" clip-rule="evenodd" d="M56.0625 39.9835H21.9375C20.6446 39.9835 19.4046 40.4971 18.4904 41.4114C17.5761 42.3256 17.0625 43.5656 17.0625 44.8585V69.2335C17.0625 70.5265 17.5761 71.7664 18.4904 72.6807C19.4046 73.5949 20.6446 74.1085 21.9375 74.1085H56.0625C57.3554 74.1085 58.5954 73.5949 59.5096 72.6807C60.4239 71.7664 60.9375 70.5265 60.9375 69.2335V44.8585C60.9375 43.5656 60.4239 42.3256 59.5096 41.4114C58.5954 40.4971 57.3554 39.9835 56.0625 39.9835ZM21.9375 35.1085C19.3516 35.1085 16.8717 36.1357 15.0432 37.9642C13.2147 39.7927 12.1875 42.2727 12.1875 44.8585V69.2335C12.1875 71.8194 13.2147 74.2993 15.0432 76.1278C16.8717 77.9563 19.3516 78.9835 21.9375 78.9835H56.0625C58.6484 78.9835 61.1283 77.9563 62.9568 76.1278C64.7853 74.2993 65.8125 71.8194 65.8125 69.2335V44.8585C65.8125 42.2727 64.7853 39.7927 62.9568 37.9642C61.1283 36.1357 58.6484 35.1085 56.0625 35.1085H21.9375ZM21.9375 20.4835C21.9375 15.9583 23.7352 11.6184 26.935 8.41851C30.1348 5.21867 34.4747 3.42102 39 3.42102C43.5253 3.42102 47.8652 5.21867 51.065 8.41851C54.2648 11.6184 56.0625 15.9583 56.0625 20.4835V35.1085H51.1875V20.4835C51.1875 17.2512 49.9035 14.1513 47.6179 11.8657C45.3323 9.58006 42.2323 8.29602 39 8.29602C35.7677 8.29602 32.6677 9.58006 30.3821 11.8657C28.0965 14.1513 26.8125 17.2512 26.8125 20.4835V35.1085H21.9375V20.4835Z" fill="white"/>
</g>
<defs>
<clipPath id="clip0">
<rect width="78" height="78" fill="white" transform="translate(0 0.983521)"/>
</clipPath>
</defs>
</svg>
