<svg width="83" height="83" viewBox="0 0 83 83" fill="none" xmlns="http://www.w3.org/2000/svg">
<path d="M71.5873 43.575C71.2415 42.5375 70.8957 41.5 70.204 40.4625C71.2415 38.3875 71.9332 37.0042 71.2415 33.8917C70.5498 31.125 68.4748 28.0125 65.7082 25.2458L59.829 22.1333L62.5957 15.9083C63.979 13.1417 63.979 9.68333 62.2498 7.2625C60.5207 4.49583 57.4082 2.76666 54.2957 2.76666C50.8373 2.76666 48.0707 4.84166 46.3415 7.95416C46.3415 7.95416 43.5748 7.2625 40.1165 8.3L35.6207 12.45C35.6207 12.45 29.7415 14.1792 28.704 19.3667C27.6665 24.5542 27.3207 31.125 25.9373 33.5458C24.554 35.9667 17.2915 44.9583 13.1415 49.8C10.029 53.6042 10.7207 57.7542 13.4873 60.8667L30.779 78.1583C33.5457 80.925 40.1165 81.9625 44.6123 77.1208C49.454 72.2792 46.3415 65.7083 46.3415 65.7083C47.7248 64.6708 51.529 61.5583 55.3332 60.5208C59.1373 59.4833 65.0165 57.4083 68.129 53.2583C70.8957 49.8 72.279 47.0333 71.5873 43.575ZM39.4248 72.2792C38.0415 73.6625 35.9665 73.6625 34.5832 72.2792L20.0582 57.7542C19.3665 57.0625 19.0207 56.3708 19.0207 55.3333C19.0207 54.2958 19.3665 53.6042 20.0582 52.9125L22.479 50.4917L39.4248 67.4375C40.1165 68.1292 40.4623 68.8208 40.4623 69.8583C40.4623 70.8958 40.1165 71.5875 39.4248 72.2792ZM62.2498 38.0417C60.5207 38.0417 59.829 36.3125 58.4457 34.9292C57.0623 33.5458 53.9498 33.2 51.529 34.2375C49.1082 35.275 48.0707 37.6958 48.0707 40.1167C48.0707 43.575 50.4915 46.6875 53.9498 46.6875C56.3707 46.6875 57.0623 46.3417 58.4457 45.65C60.5207 44.2667 61.2123 42.8833 62.5957 42.8833C63.979 42.8833 65.0165 43.575 65.0165 45.65C65.0165 47.725 62.9415 50.1458 60.8665 51.5292C58.7915 52.9125 57.0623 53.2583 54.9873 53.6042C52.9123 53.95 51.529 53.95 48.7623 55.6792C46.3415 57.0625 43.9207 58.7917 42.5373 60.175L26.629 44.2667C29.7415 40.4625 32.5082 36.3125 32.854 34.2375L35.2748 20.75C35.6207 19.3667 36.6582 19.0208 37.3498 19.0208C38.3873 19.0208 39.4248 19.7125 39.7707 20.4042L41.154 15.9083C41.4998 14.8708 42.5373 14.1792 43.229 14.1792C44.6123 14.1792 45.9957 15.2167 45.6498 16.9458L43.9207 25.2458C45.9957 21.0958 49.1082 15.9083 51.1832 12.1042C51.8748 11.0667 52.5665 10.0292 54.2957 10.0292C56.0248 10.0292 57.4082 12.1042 56.7165 13.8333C56.0248 15.2167 49.7998 25.9375 47.0332 30.4333C46.6873 30.7792 47.0332 31.125 47.7248 30.7792C48.7623 30.0875 51.1832 28.3583 53.604 28.3583C57.754 28.0125 59.829 29.7417 60.8665 30.4333C62.2498 31.4708 63.6332 33.2 64.6707 34.9292C65.3623 36.6583 63.979 38.0417 62.2498 38.0417ZM61.5582 40.4625C60.1748 40.4625 59.1373 40.8083 58.4457 41.8458C57.754 42.8833 56.3707 44.2667 54.6415 44.2667C52.2207 44.2667 50.8373 42.5375 50.8373 40.4625C50.8373 38.3875 52.2207 37.0042 54.6415 37.0042C56.3707 37.0042 57.754 38.3875 58.4457 39.425C59.1373 40.4625 60.1748 40.4625 61.5582 40.4625Z" fill="white"/>
</svg>
